<svg width="31" height="26" viewBox="0 0 31 26" fill="none" xmlns="http://www.w3.org/2000/svg">
<g filter="url(#filter0_d_1381_628)">
<path d="M23.3409 1.92372C21.8672 1.24903 20.3115 0.77038 18.7134 0.5C18.4947 0.89093 18.2968 1.29314 18.1206 1.70496C16.4183 1.44845 14.6873 1.44845 12.985 1.70496C12.8087 1.29319 12.6108 0.890977 12.3922 0.5C10.7931 0.772663 9.23631 1.25245 7.76113 1.92725C4.83253 6.26017 4.03863 10.4855 4.43558 14.6508C6.15065 15.918 8.07029 16.8817 10.1111 17.5C10.5706 16.882 10.9772 16.2263 11.3266 15.54C10.663 15.2921 10.0224 14.9863 9.41244 14.6261C9.57298 14.5097 9.73 14.3897 9.88172 14.2732C11.6567 15.108 13.594 15.5408 15.5554 15.5408C17.5169 15.5408 19.4542 15.108 21.2292 14.2732C21.3827 14.3985 21.5397 14.5185 21.6985 14.6261C21.0873 14.9869 20.4456 15.2933 19.7807 15.5417C20.1297 16.2277 20.5364 16.8829 20.9963 17.5C23.0388 16.8841 24.9599 15.9209 26.6753 14.6526C27.1411 9.82213 25.8796 5.63564 23.3409 1.92372ZM11.8294 12.0891C10.7233 12.0891 9.80939 11.0853 9.80939 9.85035C9.80939 8.6154 10.6915 7.60274 11.8259 7.60274C12.9603 7.60274 13.8671 8.6154 13.8477 9.85035C13.8283 11.0853 12.9568 12.0891 11.8294 12.0891ZM19.2815 12.0891C18.1735 12.0891 17.2632 11.0853 17.2632 9.85035C17.2632 8.6154 18.1453 7.60274 19.2815 7.60274C20.4176 7.60274 21.3174 8.6154 21.298 9.85035C21.2786 11.0853 20.4088 12.0891 19.2815 12.0891Z" fill="white"/>
</g>
<defs>
<filter id="filter0_d_1381_628" x="0.340332" y="0.5" width="30.4302" height="25" filterUnits="userSpaceOnUse" color-interpolation-filters="sRGB">
<feFlood flood-opacity="0" result="BackgroundImageFix"/>
<feColorMatrix in="SourceAlpha" type="matrix" values="0 0 0 0 0 0 0 0 0 0 0 0 0 0 0 0 0 0 127 0" result="hardAlpha"/>
<feOffset dy="4"/>
<feGaussianBlur stdDeviation="2"/>
<feComposite in2="hardAlpha" operator="out"/>
<feColorMatrix type="matrix" values="0 0 0 0 0 0 0 0 0 0 0 0 0 0 0 0 0 0 0.25 0"/>
<feBlend mode="normal" in2="BackgroundImageFix" result="effect1_dropShadow_1381_628"/>
<feBlend mode="normal" in="SourceGraphic" in2="effect1_dropShadow_1381_628" result="shape"/>
</filter>
</defs>
</svg>
