<svg width="25" height="29" viewBox="0 0 25 29" fill="none" xmlns="http://www.w3.org/2000/svg">
<g clip-path="url(#clip0_932_2972)">
<path fill-rule="evenodd" clip-rule="evenodd" d="M15.593 7.8737C15.593 9.66108 15.1143 11.216 14.2981 12.4595C14.9949 12.8636 15.7959 13.0909 16.6506 13.0909C19.34 13.0909 21.7415 11.0103 21.7417 7.80969C21.7417 4.57756 19.116 2.62457 16.6506 2.62457C15.7801 2.62457 14.9652 2.84737 14.2594 3.24889C15.0986 4.50625 15.593 6.07809 15.593 7.8737ZM8.13268 15.7153C9.66709 15.7153 11.0983 15.2801 12.2885 14.487C13.4787 15.2781 14.904 15.7155 16.4266 15.7155C18.4207 15.7155 20.4421 14.8305 21.5144 13.3434C21.5298 13.3218 21.5518 13.3057 21.577 13.2974C21.6022 13.2891 21.6294 13.289 21.6547 13.2972C21.6799 13.3053 21.702 13.3213 21.7176 13.3428C21.7332 13.3642 21.7416 13.3901 21.7415 13.4166V15.8805C21.7415 15.9839 21.7143 16.0854 21.6625 16.1749C21.6108 16.2645 21.5365 16.3388 21.4469 16.3905L16.986 18.9628C16.7052 19.1247 16.459 19.3403 16.2615 19.5973C16.0641 19.8543 15.9193 20.1478 15.8354 20.4608C15.7515 20.7738 15.7302 21.1003 15.7727 21.4216C15.8152 21.7429 15.9207 22.0526 16.0831 22.3331L16.0895 22.3397C16.1587 22.4582 16.272 22.5446 16.4047 22.5798C16.5374 22.6151 16.6787 22.5965 16.7977 22.528L23.3071 18.7614C24.1671 18.2679 24.6136 17.3293 24.5272 16.4007V0.908783C24.5272 0.769637 24.4719 0.636189 24.3735 0.537785C24.2751 0.439381 24.1416 0.384079 24.0024 0.384041H23.6567C23.1488 0.384041 22.6616 0.585747 22.3025 0.944786C21.9433 1.30382 21.7415 1.79079 21.7415 2.29854C21.7416 2.32472 21.7333 2.35024 21.7179 2.3714C21.7024 2.39255 21.6807 2.40824 21.6557 2.41618C21.6307 2.42413 21.6039 2.42391 21.5791 2.41558C21.5543 2.40724 21.5327 2.39121 21.5176 2.36982C20.4534 0.858461 18.4794 0 16.3945 0C14.8601 0 13.4289 0.435199 12.2387 1.22835C11.0483 0.43735 9.62282 0 8.10002 0C6.07245 0 4.01578 0.915483 2.95808 2.44865C2.94661 2.46533 2.93011 2.4779 2.91098 2.48452C2.89186 2.49115 2.87111 2.49148 2.85178 2.48548C2.83245 2.47947 2.81555 2.46744 2.80355 2.45115C2.79155 2.43485 2.78509 2.41514 2.78509 2.39491V2.2994C2.78511 2.04798 2.73559 1.79902 2.63935 1.56673C2.54311 1.33444 2.40203 1.12338 2.22419 0.945599C2.04634 0.767818 1.8352 0.626797 1.60283 0.530591C1.37046 0.434385 1.12141 0.384878 0.869896 0.384896H0.52479C0.38573 0.384896 0.252356 0.440069 0.153959 0.538296C0.0555625 0.636523 0.00018894 0.769774 0 0.908783V22.0578C0 22.2008 0.0568077 22.3379 0.157926 22.439C0.259044 22.54 0.39619 22.5968 0.539193 22.5968H2.2469C2.3899 22.5968 2.52705 22.54 2.62817 22.439C2.72929 22.3379 2.78609 22.2008 2.78609 22.0578V13.3265C2.7863 13.3066 2.79287 13.2872 2.80484 13.2713C2.81681 13.2553 2.83356 13.2436 2.85265 13.2379C2.87174 13.2321 2.89218 13.2326 2.91099 13.2392C2.9298 13.2458 2.94599 13.2583 2.95722 13.2748C4.00837 14.8567 6.01327 15.7153 8.13268 15.7153ZM12.7754 7.90577C12.7754 8.7611 12.5994 9.54916 12.2842 10.2391C11.9435 9.51687 11.7518 8.69287 11.7518 7.80969C11.7518 6.95455 11.9278 6.16655 12.2423 5.47663C12.5837 6.19877 12.7754 7.02269 12.7754 7.90577ZM8.93408 7.84176C8.93408 6.05642 9.41164 4.50297 10.2262 3.26021C9.52293 2.85348 8.71232 2.62457 7.84447 2.62457C5.18701 2.62457 2.78552 4.705 2.78552 7.90577C2.78552 11.1385 5.41104 13.0908 7.84447 13.0908C8.72836 13.0908 9.55287 12.8665 10.265 12.4625C9.42742 11.2057 8.93408 9.63529 8.93408 7.84176ZM16.7978 27.2375L23.307 23.471C24.483 22.7955 24.8857 21.289 24.21 20.1135L24.2036 20.1071C24.1345 19.9885 24.0211 19.902 23.8884 19.8667C23.7557 19.8315 23.6144 19.8502 23.4954 19.9188L16.9862 23.6722C16.7053 23.834 16.459 24.0496 16.2616 24.3067C16.0641 24.5637 15.9193 24.8572 15.8354 25.1702C15.7515 25.4833 15.7302 25.8098 15.7728 26.1311C15.8153 26.4524 15.9208 26.7622 16.0832 27.0427L16.0896 27.0492C16.1588 27.1678 16.2721 27.2542 16.4048 27.2895C16.5375 27.3248 16.6788 27.3061 16.7978 27.2375ZM24.5601 26.7087C24.5601 27.5249 23.8981 28.1867 23.0816 28.1867C22.265 28.1867 21.603 27.5249 21.603 26.7087C21.603 25.8924 22.265 25.2307 23.0816 25.2307C23.8981 25.2307 24.5601 25.8924 24.5601 26.7087Z" fill="white"/>
</g>
<defs>
<clipPath id="clip0_932_2972">
<rect width="24.56" height="28.1865" fill="white"/>
</clipPath>
</defs>
</svg>
